<svg width="24" height="24" viewBox="0 0 24 24" fill="none" xmlns="http://www.w3.org/2000/svg">
<path d="M12 12C14.7614 12 17 9.76142 17 7C17 4.23858 14.7614 2 12 2C9.23858 2 7 4.23858 7 7C7 9.76142 9.23858 12 12 12Z" stroke="#00317A" stroke-linecap="round" stroke-linejoin="round"/>
<path d="M3.41016 22C3.41016 18.6922 6.22291 15.925 10 15.1908" stroke="#00317A" stroke-linecap="round" stroke-linejoin="round"/>
<path d="M18.0127 12.501L18.0186 12.502L18.0391 12.5078C18.0429 12.5094 18.0462 12.5117 18.0498 12.5137L18.0918 12.5469L18.2305 12.665L18.2354 12.6689C19.539 13.7503 21.1866 14.3313 22.8809 14.3066H22.8887L23.0938 14.3008L23.1016 14.2998C23.1241 14.2988 23.1467 14.3054 23.165 14.3184C23.1834 14.3314 23.1968 14.3507 23.2031 14.3721C23.4794 15.3105 23.5643 16.2949 23.4521 17.2666C23.3399 18.2384 23.0327 19.1781 22.5498 20.0293C22.0669 20.8804 21.4178 21.626 20.6406 22.2217C19.8634 22.8174 18.9738 23.2514 18.0254 23.4971C18.0088 23.5013 17.9912 23.5014 17.9746 23.4971C17.0262 23.2514 16.1366 22.8173 15.3594 22.2217C14.5823 21.6261 13.9331 20.8803 13.4502 20.0293C12.9672 19.1781 12.6601 18.2384 12.5479 17.2666C12.4357 16.2949 12.5207 15.3106 12.7969 14.3721C12.8032 14.3507 12.8166 14.3314 12.835 14.3184C12.8533 14.3055 12.8759 14.2988 12.8984 14.2998C14.6671 14.3804 16.4026 13.7989 17.7646 12.6689L17.7695 12.6641L17.9102 12.543L17.9111 12.5439L17.9492 12.5137C17.953 12.5115 17.9569 12.5095 17.9609 12.5078L17.9814 12.501L17.999 12.5L18.0127 12.501Z" stroke="#F78F20" stroke-linecap="round" stroke-linejoin="round"/>
</svg>
