<svg width="60" height="60" viewBox="0 0 60 60" fill="none" xmlns="http://www.w3.org/2000/svg">
<g id="Huge-icon">
<g id="notification - ringin">
<path id="Combo shape" d="M36.4411 48.7497C37.0255 48.7497 37.4997 49.2238 37.4997 49.8083C37.4997 49.9349 37.4779 50.061 37.4304 50.1784C36.287 52.9976 33.391 54.9997 29.9997 54.9997C26.6084 54.9997 23.7125 52.9976 22.569 50.1784C22.5215 50.061 22.4997 49.9349 22.4997 49.8083C22.4997 49.2238 22.9739 48.7497 23.5583 48.7497H36.4411ZM29.9997 9.99968C38.0723 9.99969 44.865 16.2271 45.8005 24.485L46.6628 32.0964C46.8771 33.9874 47.6437 35.767 48.861 37.1999C51.4444 40.2407 49.3477 44.9996 45.4245 44.9997H14.5749C10.6517 44.9996 8.55493 40.2407 11.1384 37.1999C12.3557 35.767 13.1223 33.9874 13.3366 32.0964L14.1989 24.485C15.1344 16.2271 21.9271 9.99968 29.9997 9.99968ZM19.4069 5.72136C20.3892 5.39393 21.4514 5.92472 21.779 6.90691C22.1065 7.8893 21.5749 8.95151 20.5925 9.27898L20.2077 9.40691C16.2886 10.7133 13.2133 13.7895 11.9069 17.7087L11.779 18.0934C11.4515 19.0757 10.3893 19.6064 9.40693 19.279C8.4246 18.9515 7.89393 17.8893 8.22138 16.9069L8.34931 16.5221C10.029 11.4833 13.9833 7.52991 19.0222 5.85027L19.4069 5.72136ZM38.2204 6.90691C38.548 5.92472 39.6102 5.39397 40.5925 5.72136L40.9772 5.85027C46.0161 7.52989 49.9704 11.4833 51.6501 16.5221L51.778 16.9069C52.1055 17.8893 51.5749 18.9515 50.5925 19.279C49.6101 19.6064 48.5479 19.0758 48.2204 18.0934L48.0925 17.7087C46.7861 13.7895 43.7109 10.7133 39.7917 9.40691L39.4069 9.27898C38.4245 8.95151 37.8929 7.8893 38.2204 6.90691Z" fill="#191919"/>
</g>
</g>
</svg>
