<svg width="24" height="24" viewBox="0 0 24 24" fill="none" xmlns="http://www.w3.org/2000/svg">
<path d="M21.969 18.3288C21.969 18.6888 21.889 19.0588 21.719 19.4188C21.549 19.7788 21.329 20.1188 21.039 20.4388C20.549 20.9788 20.009 21.3688 19.399 21.6188C18.799 21.8688 18.149 21.9988 17.449 21.9988C16.429 21.9988 15.339 21.7588 14.189 21.2688C13.039 20.7788 11.889 20.1188 10.749 19.2888C9.59902 18.4488 8.50902 17.5188 7.46902 16.4888C6.43902 15.4488 5.50902 14.3588 4.67902 13.2188C3.85902 12.0788 3.19902 10.9388 2.71902 9.80878C2.23902 8.66878 1.99902 7.57878 1.99902 6.53878C1.99902 5.85878 2.11902 5.20878 2.35902 4.60878C2.59902 3.99878 2.97902 3.43878 3.50902 2.93878C4.14902 2.30878 4.84902 1.99878 5.58902 1.99878C5.86902 1.99878 6.14902 2.05878 6.39902 2.17878C6.65902 2.29878 6.88902 2.47878 7.06902 2.73878L9.38902 6.00878C9.56902 6.25878 9.69902 6.48878 9.78902 6.70878C9.87902 6.91878 9.92902 7.12878 9.92902 7.31878C9.92902 7.55878 9.85902 7.79878 9.71902 8.02878C9.58902 8.25878 9.39902 8.49878 9.15902 8.73878L8.39902 9.52878C8.28902 9.63878 8.23902 9.76878 8.23902 9.92878C8.23902 10.0088 8.24902 10.0788 8.26902 10.1588C8.29902 10.2388 8.32902 10.2988 8.34902 10.3588C8.52902 10.6888 8.83902 11.1188 9.27902 11.6388C9.72902 12.1588 10.209 12.6888 10.729 13.2188C11.269 13.7488 11.789 14.2388 12.319 14.6888C12.839 15.1288 13.269 15.4288 13.609 15.6088C13.659 15.6288 13.719 15.6588 13.789 15.6888C13.869 15.7188 13.949 15.7288 14.039 15.7288C14.209 15.7288 14.339 15.6688 14.449 15.5588L15.209 14.8088C15.459 14.5588 15.699 14.3688 15.929 14.2488C16.159 14.1088 16.389 14.0388 16.639 14.0388C16.829 14.0388 17.029 14.0788 17.249 14.1688C17.469 14.2588 17.699 14.3888 17.949 14.5588L21.259 16.9088C21.519 17.0888 21.699 17.2988 21.809 17.5488C21.909 17.7988 21.969 18.0488 21.969 18.3288Z" stroke="#00317A" stroke-width="0.923077" stroke-miterlimit="10"/>
<path d="M18.4995 9C18.4995 8.4 18.0295 7.48 17.3295 6.73C16.6895 6.04 15.8395 5.5 14.9995 5.5" stroke="#F78F20" stroke-width="0.923077" stroke-linecap="round" stroke-linejoin="round"/>
<path d="M21.9995 8.99878C21.9995 5.12878 18.8695 1.99878 14.9995 1.99878" stroke="#F78F20" stroke-width="0.923077" stroke-linecap="round" stroke-linejoin="round"/>
</svg>
