<svg width="18" height="18" viewBox="0 0 18 18" fill="none" xmlns="http://www.w3.org/2000/svg">
<g clip-path="url(#clip0_804_649)">
<path d="M16.3571 2.95491C15.2021 5.83491 12.3071 9.74991 9.88465 11.6924L8.40715 12.8774C8.21965 13.0124 8.03215 13.1324 7.82215 13.2149C7.82215 13.0799 7.81465 12.9299 7.79215 12.7874C7.70965 12.1574 7.42465 11.5724 6.92215 11.0699C6.41215 10.5599 5.78965 10.2599 5.15215 10.1774C5.00215 10.1699 4.85215 10.1549 4.70215 10.1699C4.78465 9.93741 4.91215 9.71991 5.06965 9.53991L6.23965 8.06241C8.17465 5.63991 12.1046 2.72991 14.9771 1.58241C15.4196 1.41741 15.8471 1.53741 16.1171 1.81491C16.4021 2.09241 16.5371 2.51991 16.3571 2.95491Z" stroke="#00317A" stroke-linejoin="round"/>
<path d="M7.82197 13.2156C7.82197 14.0406 7.50697 14.8281 6.91447 15.4281C6.45697 15.8856 5.83447 16.2006 5.09197 16.2981L3.24697 16.5006C2.24197 16.6131 1.37947 15.7581 1.49947 14.7381L1.70197 12.8931C1.88197 11.2506 3.25447 10.2006 4.70947 10.1706C4.85947 10.1631 5.01697 10.1706 5.15947 10.1781C5.79697 10.2606 6.41947 10.5531 6.92947 11.0706C7.43197 11.5731 7.71697 12.1581 7.79947 12.7881C7.80697 12.9306 7.82197 13.0731 7.82197 13.2156Z" stroke="#00317A" stroke-linejoin="round"/>
<path d="M10.6803 10.8527C10.6803 8.89518 9.09031 7.30518 7.13281 7.30518" stroke="#00317A" stroke-linejoin="round"/>
<path d="M15.091 9.54785L15.646 10.0954C16.7635 11.2129 16.7635 12.3154 15.646 13.4329L13.426 15.6529C12.3235 16.7554 11.206 16.7554 10.1035 15.6529" stroke="#F78F20" stroke-linecap="round"/>
<path d="M2.33273 7.88291C1.23023 6.76541 1.23023 5.66291 2.33273 4.54541L4.55273 2.32541C5.65523 1.22291 6.77273 1.22291 7.87523 2.32541L8.43023 2.88041" stroke="#F78F20" stroke-linecap="round"/>
<path d="M8.43809 2.88721L5.66309 5.66221" stroke="#F78F20" stroke-linecap="round"/>
<path d="M15.0901 9.54785L12.8701 11.7604" stroke="#F78F20" stroke-linecap="round"/>
</g>
<defs>
<clipPath id="clip0_804_649">
<rect width="18" height="18" fill="white"/>
</clipPath>
</defs>
</svg>
