<svg width="18" height="18" viewBox="0 0 18 18" fill="none" xmlns="http://www.w3.org/2000/svg">
<g clip-path="url(#clip0_713_19767)">
<path fill-rule="evenodd" clip-rule="evenodd" d="M8.8125 7.50001C8.8125 7.32939 8.73506 7.16799 8.60197 7.06123C8.46888 6.95447 8.29453 6.91389 8.12798 6.9509L1.37798 8.4509C1.12061 8.50809 0.9375 8.73636 0.9375 9.00001V16.5C0.9375 16.8107 1.18934 17.0625 1.5 17.0625H8.25C8.56066 17.0625 8.8125 16.8107 8.8125 16.5V7.50001Z" stroke="#F78F20" stroke-width="0.75" stroke-linecap="round" stroke-linejoin="round"/>
<path fill-rule="evenodd" clip-rule="evenodd" d="M17.0625 1.5C17.0625 1.33321 16.9885 1.17502 16.8604 1.06814C16.7324 0.961271 16.5635 0.916741 16.3994 0.946578L8.14938 2.44658C7.88191 2.49521 7.6875 2.72816 7.6875 3V16.5C7.6875 16.8107 7.93934 17.0625 8.25 17.0625H16.5C16.8107 17.0625 17.0625 16.8107 17.0625 16.5V1.5Z" fill="white" stroke="#00317A" stroke-width="0.75" stroke-miterlimit="10"/>
<path fill-rule="evenodd" clip-rule="evenodd" d="M10.875 3.9375C11.1857 3.9375 11.4375 4.18934 11.4375 4.5V5.625C11.4375 5.93566 11.1857 6.1875 10.875 6.1875C10.5643 6.1875 10.3125 5.93566 10.3125 5.625V4.5C10.3125 4.18934 10.5643 3.9375 10.875 3.9375Z" fill="#00317A"/>
<path fill-rule="evenodd" clip-rule="evenodd" d="M10.875 7.3125C11.1857 7.3125 11.4375 7.56434 11.4375 7.875V9C11.4375 9.31066 11.1857 9.5625 10.875 9.5625C10.5643 9.5625 10.3125 9.31066 10.3125 9V7.875C10.3125 7.56434 10.5643 7.3125 10.875 7.3125Z" fill="#00317A"/>
<path fill-rule="evenodd" clip-rule="evenodd" d="M10.875 10.6875C11.1857 10.6875 11.4375 10.9393 11.4375 11.25V12.375C11.4375 12.6857 11.1857 12.9375 10.875 12.9375C10.5643 12.9375 10.3125 12.6857 10.3125 12.375V11.25C10.3125 10.9393 10.5643 10.6875 10.875 10.6875Z" fill="#00317A"/>
<path fill-rule="evenodd" clip-rule="evenodd" d="M3.75 9.9375C4.06066 9.9375 4.3125 10.1893 4.3125 10.5V11.625C4.3125 11.9357 4.06066 12.1875 3.75 12.1875C3.43934 12.1875 3.1875 11.9357 3.1875 11.625V10.5C3.1875 10.1893 3.43934 9.9375 3.75 9.9375Z" fill="#F78F20"/>
<path fill-rule="evenodd" clip-rule="evenodd" d="M3.75 12.9375C4.06066 12.9375 4.3125 13.1893 4.3125 13.5V14.625C4.3125 14.9357 4.06066 15.1875 3.75 15.1875C3.43934 15.1875 3.1875 14.9357 3.1875 14.625V13.5C3.1875 13.1893 3.43934 12.9375 3.75 12.9375Z" fill="#F78F20"/>
<path fill-rule="evenodd" clip-rule="evenodd" d="M13.875 3.9375C14.1857 3.9375 14.4375 4.18934 14.4375 4.5V5.625C14.4375 5.93566 14.1857 6.1875 13.875 6.1875C13.5643 6.1875 13.3125 5.93566 13.3125 5.625V4.5C13.3125 4.18934 13.5643 3.9375 13.875 3.9375Z" fill="#00317A"/>
<path fill-rule="evenodd" clip-rule="evenodd" d="M13.875 7.3125C14.1857 7.3125 14.4375 7.56434 14.4375 7.875V9C14.4375 9.31066 14.1857 9.5625 13.875 9.5625C13.5643 9.5625 13.3125 9.31066 13.3125 9V7.875C13.3125 7.56434 13.5643 7.3125 13.875 7.3125Z" fill="#00317A"/>
<path fill-rule="evenodd" clip-rule="evenodd" d="M13.875 10.6875C14.1857 10.6875 14.4375 10.9393 14.4375 11.25V12.375C14.4375 12.6857 14.1857 12.9375 13.875 12.9375C13.5643 12.9375 13.3125 12.6857 13.3125 12.375V11.25C13.3125 10.9393 13.5643 10.6875 13.875 10.6875Z" fill="#00317A"/>
<path fill-rule="evenodd" clip-rule="evenodd" d="M6 9.9375C6.31066 9.9375 6.5625 10.1893 6.5625 10.5V11.625C6.5625 11.9357 6.31066 12.1875 6 12.1875C5.68934 12.1875 5.4375 11.9357 5.4375 11.625V10.5C5.4375 10.1893 5.68934 9.9375 6 9.9375Z" fill="#F78F20"/>
<path fill-rule="evenodd" clip-rule="evenodd" d="M6 12.9375C6.31066 12.9375 6.5625 13.1893 6.5625 13.5V14.625C6.5625 14.9357 6.31066 15.1875 6 15.1875C5.68934 15.1875 5.4375 14.9357 5.4375 14.625V13.5C5.4375 13.1893 5.68934 12.9375 6 12.9375Z" fill="#F78F20"/>
</g>
<defs>
<clipPath id="clip0_713_19767">
<rect width="18" height="18" fill="white"/>
</clipPath>
</defs>
</svg>
