<svg width="20" height="20" viewBox="0 0 20 20" fill="none" xmlns="http://www.w3.org/2000/svg">
<path d="M6.66895 4.16667C6.66895 3.24619 7.41514 2.5 8.33561 2.5H11.6689C12.5894 2.5 13.3356 3.24619 13.3356 4.16667V5H6.66895V4.16667Z" stroke="#F78F20" stroke-width="1.11111" stroke-linejoin="round"/>
<path d="M1.66895 6.66667C1.66895 5.74619 2.41514 5 3.33561 5H16.6689C17.5894 5 18.3356 5.74619 18.3356 6.66667V15.8333C18.3356 16.7538 17.5894 17.5 16.6689 17.5H10.0023H3.33561C2.41514 17.5 1.66895 16.7538 1.66895 15.8333V6.66667Z" stroke="#00317A" stroke-width="1.11111" stroke-linejoin="round"/>
<path d="M3.33561 5H16.6689C17.5894 5 18.3356 5.74619 18.3356 6.66667V9.16667L10.0023 11.6667L1.66895 9.16667V6.66667C1.66895 5.74619 2.41514 5 3.33561 5Z" stroke="#00317A" stroke-width="1.11111" stroke-linejoin="round"/>
<path d="M10.001 10V13.3333" stroke="#00317A" stroke-width="1.11111" stroke-linejoin="round"/>
</svg>
