<svg width="24" height="24" viewBox="0 0 24 24" fill="none" xmlns="http://www.w3.org/2000/svg">
<path d="M12 12C14.7614 12 17 9.76142 17 7C17 4.23858 14.7614 2 12 2C9.23858 2 7 4.23858 7 7C7 9.76142 9.23858 12 12 12Z" stroke="#00317A" stroke-linecap="round" stroke-linejoin="round"/>
<path d="M3.41016 22C3.41016 18.6921 6.22291 15.9249 10 15.1908" stroke="#00317A" stroke-linecap="round" stroke-linejoin="round"/>
<path d="M13.8037 15.0504H22.7256C22.931 15.0504 23.1282 15.1317 23.2734 15.2769C23.4187 15.4221 23.5 15.6194 23.5 15.8248V21.5601C23.5 21.7655 23.4186 21.9627 23.2734 22.108C23.1282 22.2532 22.931 22.3345 22.7256 22.3345H13.8037C13.5983 22.3345 13.4011 22.2532 13.2559 22.108C13.1107 21.9627 13.0293 21.7655 13.0293 21.5601V15.8248C13.0293 15.6194 13.1106 15.4221 13.2559 15.2769C13.4011 15.1317 13.5983 15.0504 13.8037 15.0504Z" stroke="#F78F20" stroke-linecap="round" stroke-linejoin="round"/>
<path d="M13.8037 15.0495H22.7256C22.931 15.0495 23.1282 15.1308 23.2734 15.2761C23.4187 15.4213 23.5 15.6185 23.5 15.8239V21.5593C23.5 21.7646 23.4186 21.9619 23.2734 22.1071C23.1282 22.2523 22.931 22.3337 22.7256 22.3337H13.8037C13.5983 22.3337 13.4011 22.2523 13.2559 22.1071C13.1107 21.9619 13.0293 21.7646 13.0293 21.5593V15.8239C13.0293 15.6185 13.1106 15.4213 13.2559 15.2761C13.4011 15.1308 13.5983 15.0495 13.8037 15.0495Z" stroke="#F78F20" stroke-linecap="round" stroke-linejoin="round"/>
<mask id="path-5-inside-1_756_1572" fill="white">
<path d="M15.7163 14.5497V13.2752C15.7163 12.9372 15.8506 12.613 16.0896 12.374C16.3286 12.135 16.6528 12.0007 16.9908 12.0007H19.5399C19.8779 12.0007 20.2021 12.135 20.4411 12.374C20.6801 12.613 20.8144 12.9372 20.8144 13.2752V14.5497"/>
</mask>
<path d="M14.7163 14.5497C14.7163 15.102 15.164 15.5497 15.7163 15.5497C16.2686 15.5497 16.7163 15.102 16.7163 14.5497H15.7163H14.7163ZM16.9908 12.0007V11.0007V12.0007ZM19.5399 12.0007V11.0007V12.0007ZM19.8144 14.5497C19.8144 15.102 20.2621 15.5497 20.8144 15.5497C21.3667 15.5497 21.8144 15.102 21.8144 14.5497H20.8144H19.8144ZM15.7163 14.5497H16.7163V13.2752H15.7163H14.7163V14.5497H15.7163ZM15.7163 13.2752H16.7163C16.7163 13.2024 16.7452 13.1326 16.7967 13.0811L16.0896 12.374L15.3825 11.6669C14.9559 12.0934 14.7163 12.672 14.7163 13.2752H15.7163ZM16.0896 12.374L16.7967 13.0811C16.8482 13.0296 16.918 13.0007 16.9908 13.0007V12.0007V11.0007C16.3876 11.0007 15.8091 11.2403 15.3825 11.6669L16.0896 12.374ZM16.9908 12.0007V13.0007H19.5399V12.0007V11.0007H16.9908V12.0007ZM19.5399 12.0007V13.0007C19.6127 13.0007 19.6825 13.0296 19.734 13.0811L20.4411 12.374L21.1482 11.6669C20.7217 11.2403 20.1431 11.0007 19.5399 11.0007V12.0007ZM20.4411 12.374L19.734 13.0811C19.7855 13.1326 19.8144 13.2024 19.8144 13.2752H20.8144H21.8144C21.8144 12.672 21.5748 12.0934 21.1482 11.6669L20.4411 12.374ZM20.8144 13.2752H19.8144V14.5497H20.8144H21.8144V13.2752H20.8144Z" fill="#F78F20" mask="url(#path-5-inside-1_756_1572)"/>
</svg>
